%FSLAX34Y34*%
%MOMM*%
%LNCOPPER_BOTTOM*%
G71*
G01*
%ADD10C, 2.000*%
%ADD11C, 0.800*%
%ADD12C, 0.500*%
%ADD13C, 0.200*%
%LPD*%
X73422Y735806D02*
G54D10*
D03*
X98822Y735806D02*
G54D10*
D03*
X124222Y735806D02*
G54D10*
D03*
X149622Y735806D02*
G54D10*
D03*
X175022Y735806D02*
G54D10*
D03*
X200422Y735806D02*
G54D10*
D03*
X225822Y735806D02*
G54D10*
D03*
X251222Y735806D02*
G54D10*
D03*
X276622Y735806D02*
G54D10*
D03*
X302022Y735806D02*
G54D10*
D03*
X327422Y735806D02*
G54D10*
D03*
X352822Y735806D02*
G54D10*
D03*
X378222Y735806D02*
G54D10*
D03*
X403622Y735806D02*
G54D10*
D03*
X429022Y735806D02*
G54D10*
D03*
X454422Y735806D02*
G54D10*
D03*
X416322Y939006D02*
G54D10*
D03*
X416322Y913606D02*
G54D10*
D03*
X416322Y888206D02*
G54D10*
D03*
X416322Y862806D02*
G54D10*
D03*
X416322Y837406D02*
G54D10*
D03*
X416322Y812006D02*
G54D10*
D03*
X347266Y815975D02*
G54D11*
D03*
X347266Y846534D02*
G54D11*
D03*
G54D12*
X347266Y846138D02*
X347266Y815975D01*
X467122Y888206D02*
G54D10*
D03*
X467122Y862806D02*
G54D10*
D03*
X467122Y837406D02*
G54D10*
D03*
X467122Y812006D02*
G54D10*
D03*
X94059Y640556D02*
G54D10*
D03*
X68659Y640556D02*
G54D10*
D03*
X43259Y640556D02*
G54D10*
D03*
G54D12*
X68659Y647303D02*
X68659Y674291D01*
X86122Y691753D01*
X112316Y691753D01*
X124222Y703659D01*
X124222Y730647D01*
X358775Y877491D02*
G54D11*
D03*
X346472Y877491D02*
G54D11*
D03*
X308372Y877491D02*
G54D11*
D03*
X238919Y678259D02*
G54D11*
D03*
X375444Y678259D02*
G54D11*
D03*
X415925Y678259D02*
G54D11*
D03*
G54D13*
X238919Y678259D02*
X238919Y723106D01*
X238522Y723503D01*
X238522Y808434D01*
X308372Y877888D01*
G54D13*
X375047Y678259D02*
X357584Y678259D01*
X340122Y695722D01*
X340122Y871141D01*
X346472Y877094D01*
G54D13*
X416322Y680244D02*
X416322Y759222D01*
X358378Y817166D01*
X358378Y877094D01*
X180975Y867966D02*
G54D11*
D03*
G54D12*
X180578Y867966D02*
X184547Y867966D01*
X205184Y888603D01*
X376238Y888603D01*
X389731Y875109D01*
X389731Y806053D01*
X454422Y741362D01*
X432991Y913606D02*
G54D11*
D03*
X496094Y914003D02*
G54D11*
D03*
G54D12*
X432594Y913606D02*
X496094Y913606D01*
X496491Y914003D01*
M02*
