; Drill file
; Format: 3.3 (000.000)
M48
METRIC
T01C0.3
T02C0.7
%
G05
G90
T01
X023890Y067830
X037540Y067830
X041590Y067830
X034730Y081600
X034730Y084650
X034650Y087750
X035880Y087750
X030840Y087750
X018100Y086800
X043300Y091360
X049610Y091400
T02
X004330Y064060
X006870Y064060
X009410Y064060
X009880Y073580
X007340Y073580
X012420Y073580
X014960Y073580
X017500Y073580
X020040Y073580
X022580Y073580
X025120Y073580
X027660Y073580
X030200Y073580
X032740Y073580
X035280Y073580
X037820Y073580
X040360Y073580
X042900Y073580
X045440Y073580
X046710Y081200
X046710Y083740
X046710Y086280
X046710Y088820
X041630Y088820
X041630Y091360
X041630Y093900
X041630Y086280
X041630Y083740
X041630Y081200
M30
