%FSLAX34Y34*%
%MOMM*%
%LNCOPPER_BOTTOM*%
G71*
G01*
%ADD10C, 2.000*%
%ADD11C, 0.800*%
%ADD12C, 0.500*%
%ADD13C, 0.200*%
%LPD*%
X75922Y725806D02*
G54D10*
D03*
X101322Y725806D02*
G54D10*
D03*
X126722Y725806D02*
G54D10*
D03*
X152122Y725806D02*
G54D10*
D03*
X177522Y725806D02*
G54D10*
D03*
X202922Y725806D02*
G54D10*
D03*
X228322Y725806D02*
G54D10*
D03*
X253722Y725806D02*
G54D10*
D03*
X279122Y725806D02*
G54D10*
D03*
X304522Y725806D02*
G54D10*
D03*
X329922Y725806D02*
G54D10*
D03*
X355322Y725806D02*
G54D10*
D03*
X380722Y725806D02*
G54D10*
D03*
X406122Y725806D02*
G54D10*
D03*
X431522Y725806D02*
G54D10*
D03*
X456922Y725806D02*
G54D10*
D03*
X418822Y929006D02*
G54D10*
D03*
X418822Y903606D02*
G54D10*
D03*
X418822Y878206D02*
G54D10*
D03*
X418822Y852806D02*
G54D10*
D03*
X418822Y827406D02*
G54D10*
D03*
X418822Y802006D02*
G54D10*
D03*
X349766Y805975D02*
G54D11*
D03*
X349766Y836534D02*
G54D11*
D03*
G54D12*
X349766Y836138D02*
X349766Y805975D01*
X469622Y878206D02*
G54D10*
D03*
X469622Y852806D02*
G54D10*
D03*
X469622Y827406D02*
G54D10*
D03*
X469622Y802006D02*
G54D10*
D03*
X96559Y630556D02*
G54D10*
D03*
X71159Y630556D02*
G54D10*
D03*
X45759Y630556D02*
G54D10*
D03*
G54D12*
X71159Y637303D02*
X71159Y664291D01*
X88622Y681753D01*
X114816Y681753D01*
X126722Y693659D01*
X126722Y720647D01*
X361275Y867491D02*
G54D11*
D03*
X348972Y867491D02*
G54D11*
D03*
X310872Y867491D02*
G54D11*
D03*
X241419Y668259D02*
G54D11*
D03*
X377944Y668259D02*
G54D11*
D03*
X418425Y668259D02*
G54D11*
D03*
G54D13*
X241419Y668259D02*
X241419Y713106D01*
X241022Y713503D01*
X241022Y798434D01*
X310872Y867888D01*
G54D13*
X377547Y668259D02*
X360084Y668259D01*
X342622Y685722D01*
X342622Y861141D01*
X348972Y867094D01*
G54D13*
X418822Y670244D02*
X418822Y749222D01*
X360878Y807166D01*
X360878Y867094D01*
X183475Y857966D02*
G54D11*
D03*
G54D12*
X183078Y857966D02*
X187047Y857966D01*
X207684Y878603D01*
X378738Y878603D01*
X392231Y865109D01*
X392231Y796053D01*
X456922Y731362D01*
X435491Y903606D02*
G54D11*
D03*
X498594Y904003D02*
G54D11*
D03*
G54D12*
X435094Y903606D02*
X498594Y903606D01*
X498991Y904003D01*
M02*
