%FSLAX34Y34*%
%MOMM*%
%LNCOPPER_BOTTOM*%
G71*
G01*
%ADD10C, 0.800*%
%ADD11C, 6.000*%
%ADD12C, 2.300*%
%ADD13C, 0.300*%
%ADD14C, 3.000*%
%ADD15C, 1.800*%
%ADD16C, 0.500*%
%ADD17C, 1.000*%
%LPD*%
X409178Y497681D02*
G54D10*
D03*
X409178Y426244D02*
G54D10*
D03*
X40369Y40728D02*
G54D11*
D03*
X41956Y559047D02*
G54D11*
D03*
X709897Y559840D02*
G54D11*
D03*
X709897Y40331D02*
G54D11*
D03*
X369888Y346550D02*
G54D10*
D03*
X707231Y499347D02*
G54D12*
D03*
X707231Y473947D02*
G54D12*
D03*
X707231Y448547D02*
G54D12*
D03*
X707231Y423147D02*
G54D12*
D03*
G54D13*
X408781Y497759D02*
X408781Y426322D01*
X421878Y497681D02*
G54D10*
D03*
X414338Y355203D02*
G54D10*
D03*
G54D13*
X421878Y495378D02*
X421878Y369966D01*
X414338Y355203D01*
X341714Y548806D02*
G54D14*
D03*
X290914Y548806D02*
G54D14*
D03*
X307800Y43297D02*
G54D14*
D03*
X358600Y43297D02*
G54D14*
D03*
G54D15*
X463175Y337622D02*
X481175Y337622D01*
G54D15*
X463175Y312222D02*
X481175Y312222D01*
G54D15*
X463175Y286822D02*
X481175Y286822D01*
G54D15*
X463175Y261422D02*
X481175Y261422D01*
G54D15*
X463175Y236022D02*
X481175Y236022D01*
G54D15*
X463175Y210622D02*
X481175Y210622D01*
G54D15*
X650500Y236816D02*
X668500Y236816D01*
G54D15*
X650500Y262216D02*
X668500Y262216D01*
G54D15*
X650500Y287616D02*
X668500Y287616D01*
G54D15*
X650500Y313016D02*
X668500Y313016D01*
G54D15*
X650500Y338416D02*
X668500Y338416D01*
G54D15*
X649309Y95528D02*
X667309Y95528D01*
G54D15*
X649309Y120928D02*
X667309Y120928D01*
G54D15*
X649309Y146328D02*
X667309Y146328D01*
G54D15*
X649309Y171728D02*
X667309Y171728D01*
G54D15*
X155597Y386437D02*
X173597Y386437D01*
G54D15*
X155597Y411837D02*
X173597Y411837D01*
G54D15*
X155597Y437237D02*
X173597Y437237D01*
G54D15*
X155597Y310237D02*
X173597Y310237D01*
G54D15*
X155597Y335637D02*
X173597Y335637D01*
G54D15*
X155597Y361037D02*
X173597Y361037D01*
G54D15*
X155597Y234037D02*
X173597Y234037D01*
G54D15*
X155597Y259437D02*
X173597Y259437D01*
G54D15*
X155597Y284837D02*
X173597Y284837D01*
G54D15*
X155597Y157837D02*
X173597Y157837D01*
G54D15*
X155597Y183237D02*
X173597Y183237D01*
G54D15*
X155597Y208637D02*
X173597Y208637D01*
X229791Y259237D02*
G54D10*
D03*
X229791Y183037D02*
G54D10*
D03*
X374650Y276700D02*
G54D10*
D03*
X379412Y264000D02*
G54D10*
D03*
G54D13*
X229791Y259237D02*
X357188Y259237D01*
X374650Y276700D01*
G54D13*
X229791Y183037D02*
X298450Y183037D01*
X379412Y264000D01*
X304403Y342581D02*
G54D10*
D03*
X314722Y352503D02*
G54D10*
D03*
X230584Y335834D02*
G54D10*
D03*
X230584Y411637D02*
G54D10*
D03*
G54D13*
X230584Y411637D02*
X255191Y411637D01*
X314722Y352503D01*
G54D13*
X230584Y335834D02*
X297656Y335834D01*
X304403Y342581D01*
X460200Y43297D02*
G54D14*
D03*
X510999Y43297D02*
G54D14*
D03*
X359569Y322340D02*
G54D10*
D03*
X407194Y207246D02*
G54D10*
D03*
G54D16*
X359569Y322340D02*
X359569Y310434D01*
X393303Y276700D01*
X393303Y221137D01*
X407194Y207246D01*
G54D13*
X369888Y346550D02*
X369888Y314800D01*
X448469Y236219D01*
X471978Y236219D01*
X472175Y236022D01*
X562619Y146272D02*
G54D10*
D03*
G54D16*
X472175Y261422D02*
X495100Y261422D01*
X516731Y239790D01*
X516731Y192159D01*
X562619Y146272D01*
X522684Y397669D02*
G54D10*
D03*
X648388Y558284D02*
G54D12*
D03*
X671406Y503516D02*
G54D12*
D03*
X671406Y420966D02*
G54D12*
D03*
X671406Y370166D02*
G54D12*
D03*
G54D17*
X671406Y370166D02*
X671406Y420966D01*
X671406Y503516D01*
X648388Y558284D01*
G54D16*
X522684Y397669D02*
X522684Y307353D01*
X658309Y171728D01*
X357271Y138608D02*
G54D10*
D03*
G54D16*
X357271Y138608D02*
X357271Y157324D01*
X407194Y207246D01*
X284901Y484059D02*
G54D10*
D03*
G54D16*
X284901Y484059D02*
X284901Y416774D01*
X359172Y342503D01*
X359172Y322737D01*
X359569Y322340D01*
X415925Y228678D02*
G54D10*
D03*
X527447Y120331D02*
G54D10*
D03*
G54D13*
X415925Y228678D02*
X419100Y228678D01*
X527447Y120331D01*
M02*
