%FSLAX34Y34*%
%MOMM*%
%LNCOPPER_TOP*%
G71*
G01*
%ADD10R, 1.400X1.300*%
%ADD11R, 1.600X1.600*%
%ADD12C, 0.500*%
%ADD13R, 0.670X1.600*%
%ADD14R, 1.300X1.400*%
%ADD15C, 0.800*%
%ADD16R, 0.650X1.270*%
%ADD17C, 6.000*%
%ADD18R, 2.000X2.500*%
%ADD19C, 0.800*%
%ADD20R, 0.400X1.600*%
%ADD21R, 1.600X0.400*%
%ADD22R, 1.500X5.000*%
%ADD23C, 0.350*%
%ADD24C, 0.300*%
%ADD25C, 2.300*%
%ADD26C, 1.000*%
%ADD27C, 3.000*%
%ADD28R, 1.300X1.000*%
%ADD29R, 2.540X2.540*%
%ADD30C, 0.000*%
%ADD31C, 1.800*%
%ADD32R, 1.380X2.790*%
%LPD*%
X268112Y189158D02*
G54D10*
D03*
X268112Y208158D02*
G54D10*
D03*
X616978Y411137D02*
G54D11*
D03*
X644978Y411137D02*
G54D11*
D03*
X616978Y433362D02*
G54D11*
D03*
X644978Y433362D02*
G54D11*
D03*
X566178Y411137D02*
G54D11*
D03*
X594178Y411137D02*
G54D11*
D03*
X566178Y433362D02*
G54D11*
D03*
X594178Y433362D02*
G54D11*
D03*
G54D12*
X559866Y426987D02*
X559866Y417462D01*
G54D12*
X610666Y404762D02*
X602728Y404762D01*
X602728Y439687D01*
X607491Y439687D01*
X607491Y409525D01*
X396066Y412319D02*
G54D13*
D03*
X408766Y412319D02*
G54D13*
D03*
X421466Y412319D02*
G54D13*
D03*
X434166Y412319D02*
G54D13*
D03*
X446866Y412319D02*
G54D13*
D03*
X459566Y412319D02*
G54D13*
D03*
X472266Y412319D02*
G54D13*
D03*
X484966Y412319D02*
G54D13*
D03*
X497666Y412319D02*
G54D13*
D03*
X510366Y412319D02*
G54D13*
D03*
X523066Y412319D02*
G54D13*
D03*
X535766Y412319D02*
G54D13*
D03*
X535766Y512319D02*
G54D13*
D03*
X523066Y512319D02*
G54D13*
D03*
X510366Y512319D02*
G54D13*
D03*
X497666Y512319D02*
G54D13*
D03*
X484966Y512319D02*
G54D13*
D03*
X472266Y512319D02*
G54D13*
D03*
X459566Y512319D02*
G54D13*
D03*
X446866Y512319D02*
G54D13*
D03*
X434166Y512319D02*
G54D13*
D03*
X421466Y512319D02*
G54D13*
D03*
X408766Y512319D02*
G54D13*
D03*
X396066Y512319D02*
G54D13*
D03*
X616184Y492100D02*
G54D11*
D03*
X644184Y492100D02*
G54D11*
D03*
X616184Y514325D02*
G54D11*
D03*
X644184Y514325D02*
G54D11*
D03*
X565384Y492100D02*
G54D11*
D03*
X593384Y492100D02*
G54D11*
D03*
X565384Y514325D02*
G54D11*
D03*
X593384Y514325D02*
G54D11*
D03*
G54D12*
X559072Y507950D02*
X559072Y498425D01*
G54D12*
X609872Y487312D02*
X601934Y487312D01*
X601934Y520650D01*
X606697Y520650D01*
X606697Y490487D01*
G54D12*
X651666Y416250D02*
X651666Y428950D01*
G54D12*
X650872Y497212D02*
X650872Y506737D01*
X453453Y389856D02*
G54D14*
D03*
X434453Y389856D02*
G54D14*
D03*
G54D12*
X484978Y517056D02*
X450053Y517056D01*
X409178Y497681D02*
G54D15*
D03*
X409178Y426244D02*
G54D15*
D03*
G54D12*
X434578Y407194D02*
X434578Y396081D01*
G54D12*
X452041Y394494D02*
X452041Y402431D01*
X447278Y407987D01*
X483791Y407987D01*
G54D12*
X509984Y506412D02*
X509984Y499269D01*
X522684Y486569D01*
X558403Y486569D01*
X559197Y487362D01*
G54D12*
X510778Y419100D02*
X510778Y427037D01*
X521891Y438150D01*
X559991Y438150D01*
X345762Y138608D02*
G54D16*
D03*
X333062Y138608D02*
G54D16*
D03*
X320362Y138608D02*
G54D16*
D03*
X307662Y138608D02*
G54D16*
D03*
X307662Y189408D02*
G54D16*
D03*
X320362Y189408D02*
G54D16*
D03*
X333062Y189408D02*
G54D16*
D03*
X345762Y189408D02*
G54D16*
D03*
X347287Y215720D02*
G54D10*
D03*
X347287Y234720D02*
G54D10*
D03*
X313949Y215720D02*
G54D10*
D03*
X313949Y234720D02*
G54D10*
D03*
X310062Y112502D02*
G54D14*
D03*
G36*
X322562Y119502D02*
X335562Y119502D01*
X335562Y105502D01*
X322562Y105502D01*
X322562Y119502D01*
G37*
G54D12*
X319380Y210783D02*
X320174Y210783D01*
X320968Y209989D01*
X320968Y191733D01*
G54D12*
X346368Y213958D02*
X346368Y194114D01*
X368793Y112433D02*
G54D14*
D03*
X349793Y112433D02*
G54D14*
D03*
X40369Y40728D02*
G54D17*
D03*
X41956Y559047D02*
G54D17*
D03*
X709897Y559840D02*
G54D17*
D03*
X709897Y40331D02*
G54D17*
D03*
X22944Y462859D02*
G54D18*
D03*
X61838Y462859D02*
G54D18*
D03*
X22944Y391422D02*
G54D18*
D03*
X61838Y391422D02*
G54D18*
D03*
X22944Y323159D02*
G54D18*
D03*
X61838Y323159D02*
G54D18*
D03*
X22944Y251722D02*
G54D18*
D03*
X61838Y251722D02*
G54D18*
D03*
G54D19*
X60325Y320753D02*
X60325Y255666D01*
X61119Y254872D01*
G54D19*
X61119Y461247D02*
X61119Y395366D01*
X354806Y298131D02*
G54D20*
D03*
X359806Y298131D02*
G54D20*
D03*
X364806Y298131D02*
G54D20*
D03*
X369806Y298131D02*
G54D20*
D03*
X374806Y298131D02*
G54D20*
D03*
X379806Y298131D02*
G54D20*
D03*
X384806Y298131D02*
G54D20*
D03*
X389806Y298131D02*
G54D20*
D03*
X404306Y312631D02*
G54D21*
D03*
X404306Y317631D02*
G54D21*
D03*
X404306Y322631D02*
G54D21*
D03*
X404306Y327631D02*
G54D21*
D03*
X404306Y332631D02*
G54D21*
D03*
X404306Y337631D02*
G54D21*
D03*
X404306Y342631D02*
G54D21*
D03*
X404306Y347631D02*
G54D21*
D03*
X389806Y362131D02*
G54D20*
D03*
X384806Y362131D02*
G54D20*
D03*
X379806Y362131D02*
G54D20*
D03*
X374806Y362131D02*
G54D20*
D03*
X369806Y362131D02*
G54D20*
D03*
X364806Y362131D02*
G54D20*
D03*
X359806Y362131D02*
G54D20*
D03*
X354806Y362131D02*
G54D20*
D03*
X340306Y347631D02*
G54D21*
D03*
X340306Y342631D02*
G54D21*
D03*
X340306Y337631D02*
G54D21*
D03*
X340306Y332631D02*
G54D21*
D03*
X340306Y327631D02*
G54D21*
D03*
X340306Y322631D02*
G54D21*
D03*
X340306Y317631D02*
G54D21*
D03*
X340306Y312631D02*
G54D21*
D03*
X269060Y344574D02*
G54D22*
D03*
X269060Y244562D02*
G54D22*
D03*
X268112Y379658D02*
G54D10*
D03*
X268112Y398658D02*
G54D10*
D03*
G54D23*
X269875Y322340D02*
X276225Y322340D01*
X280988Y317578D01*
X333375Y317578D01*
G54D23*
X273050Y266778D02*
X273050Y296940D01*
X288925Y312816D01*
X333375Y312816D01*
G54D24*
X411162Y312419D02*
X462359Y312419D01*
G54D24*
X389731Y291384D02*
X389731Y288606D01*
X392112Y286225D01*
X463153Y286225D01*
G54D24*
X384969Y290987D02*
X384969Y282653D01*
X391319Y271937D01*
X397669Y261619D01*
X462756Y261619D01*
X369888Y346550D02*
G54D15*
D03*
G54D23*
X369888Y355281D02*
X369888Y348534D01*
G54D23*
X346472Y332262D02*
X351234Y332262D01*
X353219Y330278D01*
X353219Y325516D01*
X350441Y322737D01*
X346869Y322737D01*
X707231Y499347D02*
G54D25*
D03*
X707231Y473947D02*
G54D25*
D03*
X707231Y448547D02*
G54D25*
D03*
X707231Y423147D02*
G54D25*
D03*
G54D12*
X537369Y516809D02*
X537369Y521572D01*
X550069Y534272D01*
X672306Y534272D01*
X707231Y499347D01*
G54D12*
X497681Y505697D02*
X497681Y491409D01*
X511969Y475534D01*
X707231Y475534D01*
G54D12*
X497681Y418384D02*
X497681Y442197D01*
X505619Y450134D01*
X708819Y450134D01*
G54D12*
X535781Y407272D02*
X535781Y404097D01*
X546894Y392984D01*
X675481Y392984D01*
X707231Y424734D01*
G54D12*
X408781Y499347D02*
X408781Y505697D01*
G54D12*
X408781Y419972D02*
X408781Y424734D01*
X421878Y497681D02*
G54D15*
D03*
G54D12*
X421481Y498950D02*
X421481Y506887D01*
X414338Y355203D02*
G54D15*
D03*
G54D23*
X409972Y347344D02*
X414338Y355203D01*
G54D26*
X395684Y505697D02*
X395684Y417194D01*
G54D26*
X470694Y462437D02*
X396478Y462437D01*
X396081Y462834D01*
G54D26*
X472281Y506490D02*
X472281Y417194D01*
X334908Y433259D02*
G54D16*
D03*
X322208Y433259D02*
G54D16*
D03*
X309508Y433259D02*
G54D16*
D03*
X296808Y433259D02*
G54D16*
D03*
X296808Y484059D02*
G54D16*
D03*
X309508Y484059D02*
G54D16*
D03*
X322208Y484059D02*
G54D16*
D03*
X334908Y484059D02*
G54D16*
D03*
X341714Y548806D02*
G54D27*
D03*
X290914Y548806D02*
G54D27*
D03*
G54D12*
X341714Y548806D02*
X341714Y534575D01*
X322495Y515356D01*
X322495Y488369D01*
G54D12*
X290914Y548806D02*
X290914Y534237D01*
X309795Y515356D01*
X309795Y488369D01*
G54D12*
X322495Y429631D02*
X309795Y429631D01*
G54D23*
X354806Y367584D02*
X354806Y377109D01*
X315516Y416400D01*
X315516Y428703D01*
X315912Y429100D01*
G54D23*
X359966Y367981D02*
X359966Y387428D01*
X334962Y412431D01*
X334962Y428306D01*
G54D23*
X364728Y368378D02*
X364728Y422353D01*
X341312Y445769D01*
X300831Y445769D01*
X296862Y441800D01*
X296862Y436640D01*
X307800Y43297D02*
G54D27*
D03*
X358600Y43297D02*
G54D27*
D03*
G54D23*
X345652Y134186D02*
X345652Y117914D01*
G54D23*
X332952Y134583D02*
X332952Y117914D01*
G54D23*
X320649Y134583D02*
X307552Y134583D01*
X307552Y118708D01*
G54D23*
X328587Y106008D02*
X328587Y85767D01*
X358749Y55605D01*
G54D23*
X307552Y106405D02*
X307552Y55208D01*
G54D23*
X351234Y240187D02*
X351234Y244950D01*
X354409Y248125D01*
X354409Y291384D01*
G54D23*
X333375Y184625D02*
X333375Y181053D01*
X338534Y175894D01*
X355600Y175894D01*
X359569Y179862D01*
X359569Y292178D01*
G54D23*
X313928Y241378D02*
X313928Y271937D01*
X353219Y311228D01*
X362347Y311228D01*
X364728Y308847D01*
X364728Y304481D01*
X614545Y272354D02*
G54D28*
D03*
X614545Y302554D02*
G54D28*
D03*
X614645Y287654D02*
G54D28*
D03*
X584145Y287754D02*
G54D29*
D03*
G36*
X608245Y283554D02*
X595545Y283554D01*
X595545Y291454D01*
X609845Y291454D01*
X609845Y283554D01*
X608245Y283554D01*
G37*
G54D30*
X608245Y283554D02*
X595545Y283554D01*
X595545Y291454D01*
X609845Y291454D01*
X609845Y283554D01*
X608245Y283554D01*
G54D12*
X614645Y287654D02*
X659461Y287654D01*
X659500Y287616D01*
G54D12*
X614545Y302554D02*
X634264Y302554D01*
X644922Y313212D01*
X659303Y313212D01*
X659500Y313016D01*
G54D12*
X614545Y272354D02*
X632202Y272354D01*
X642144Y262412D01*
X659303Y262412D01*
X659500Y262216D01*
X598880Y338255D02*
G54D14*
D03*
X579880Y338255D02*
G54D14*
D03*
X560880Y338255D02*
G54D14*
D03*
X541880Y338255D02*
G54D14*
D03*
X560011Y298989D02*
G54D10*
D03*
X560011Y317989D02*
G54D10*
D03*
G54D12*
X579880Y338255D02*
X560880Y338255D01*
X560880Y318858D01*
X560011Y317989D01*
X598880Y237180D02*
G54D14*
D03*
X579880Y237180D02*
G54D14*
D03*
X560880Y237180D02*
G54D14*
D03*
X541880Y237180D02*
G54D14*
D03*
X560011Y276446D02*
G54D10*
D03*
X560011Y257446D02*
G54D10*
D03*
G54D12*
X579880Y237180D02*
X560880Y237180D01*
X560880Y256577D01*
X560011Y257446D01*
G54D12*
X598880Y338255D02*
X659339Y338255D01*
X659500Y338416D01*
G54D12*
X598880Y237180D02*
X659136Y237180D01*
X659500Y236816D01*
G54D12*
X560011Y276446D02*
X572837Y276446D01*
X584145Y287754D01*
G54D12*
X560011Y298989D02*
X572910Y298989D01*
X584145Y287754D01*
G54D12*
X560011Y298989D02*
X560011Y276446D01*
G54D24*
X411162Y337819D02*
X419894Y341787D01*
X438150Y341787D01*
X452041Y357662D01*
X522473Y357662D01*
X541880Y338255D01*
G54D31*
X463175Y337622D02*
X481175Y337622D01*
G54D31*
X463175Y312222D02*
X481175Y312222D01*
G54D31*
X463175Y286822D02*
X481175Y286822D01*
G54D31*
X463175Y261422D02*
X481175Y261422D01*
G54D31*
X463175Y236022D02*
X481175Y236022D01*
G54D31*
X463175Y210622D02*
X481175Y210622D01*
G54D31*
X650500Y236816D02*
X668500Y236816D01*
G54D31*
X650500Y262216D02*
X668500Y262216D01*
G54D31*
X650500Y287616D02*
X668500Y287616D01*
G54D31*
X650500Y313016D02*
X668500Y313016D01*
G54D31*
X650500Y338416D02*
X668500Y338416D01*
G54D24*
X410369Y322737D02*
X450056Y322737D01*
X452438Y325119D01*
X521494Y325119D01*
X541734Y304878D01*
X541734Y237326D01*
X541880Y237180D01*
G54D31*
X649309Y95528D02*
X667309Y95528D01*
G54D31*
X649309Y120928D02*
X667309Y120928D01*
G54D31*
X649309Y146328D02*
X667309Y146328D01*
G54D31*
X649309Y171728D02*
X667309Y171728D01*
X598484Y120768D02*
G54D14*
D03*
X579484Y120768D02*
G54D14*
D03*
X560484Y120768D02*
G54D14*
D03*
X541484Y120768D02*
G54D14*
D03*
X579484Y95765D02*
G54D14*
D03*
X598484Y95765D02*
G54D14*
D03*
G54D12*
X598484Y120768D02*
X658309Y120928D01*
X598288Y146272D02*
G54D14*
D03*
X579288Y146272D02*
G54D14*
D03*
G54D12*
X598288Y146272D02*
X658253Y146272D01*
X658309Y146328D01*
G54D12*
X560484Y120768D02*
X579484Y120768D01*
X579484Y95765D01*
G54D12*
X598484Y95765D02*
X658072Y95765D01*
X658309Y95528D01*
G54D31*
X155597Y386437D02*
X173597Y386437D01*
G54D31*
X155597Y411837D02*
X173597Y411837D01*
G54D31*
X155597Y437237D02*
X173597Y437237D01*
G54D31*
X155597Y310237D02*
X173597Y310237D01*
G54D31*
X155597Y335637D02*
X173597Y335637D01*
G54D31*
X155597Y361037D02*
X173597Y361037D01*
G54D31*
X155597Y234037D02*
X173597Y234037D01*
G54D31*
X155597Y259437D02*
X173597Y259437D01*
G54D31*
X155597Y284837D02*
X173597Y284837D01*
G54D31*
X155597Y157837D02*
X173597Y157837D01*
G54D31*
X155597Y183237D02*
X173597Y183237D01*
G54D31*
X155597Y208637D02*
X173597Y208637D01*
G54D24*
X268112Y379658D02*
X268112Y360616D01*
X269875Y358853D01*
G54D24*
X268112Y208158D02*
X268112Y230090D01*
X269875Y231853D01*
X217094Y182640D02*
G54D14*
D03*
X198094Y182640D02*
G54D14*
D03*
X198286Y208184D02*
G54D14*
D03*
X217286Y208184D02*
G54D14*
D03*
G54D12*
X177800Y208040D02*
X198143Y208040D01*
X198286Y208184D01*
G54D12*
X177800Y182640D02*
X198094Y182640D01*
X217094Y258840D02*
G54D14*
D03*
X198094Y258840D02*
G54D14*
D03*
X198286Y284384D02*
G54D14*
D03*
X217286Y284384D02*
G54D14*
D03*
G54D12*
X177800Y284240D02*
X198143Y284240D01*
X198286Y284384D01*
G54D12*
X177800Y258840D02*
X198094Y258840D01*
X217094Y335040D02*
G54D14*
D03*
X198094Y335040D02*
G54D14*
D03*
X198286Y360584D02*
G54D14*
D03*
X217286Y360584D02*
G54D14*
D03*
G54D12*
X177800Y360440D02*
X198143Y360440D01*
X198286Y360584D01*
G54D12*
X177800Y335040D02*
X198094Y335040D01*
X217094Y411240D02*
G54D14*
D03*
X198094Y411240D02*
G54D14*
D03*
X198286Y436784D02*
G54D14*
D03*
X217286Y436784D02*
G54D14*
D03*
G54D12*
X177800Y436640D02*
X198143Y436640D01*
X198286Y436784D01*
G54D12*
X177800Y411240D02*
X198094Y411240D01*
X229791Y259237D02*
G54D15*
D03*
X229791Y183037D02*
G54D15*
D03*
X374650Y276700D02*
G54D15*
D03*
X379412Y264000D02*
G54D15*
D03*
G54D24*
X374650Y276700D02*
X374650Y291384D01*
G54D24*
X379412Y264000D02*
X379412Y269556D01*
X382191Y272334D01*
X382191Y279081D01*
X379809Y281462D01*
X379809Y291781D01*
G54D24*
X217094Y182640D02*
X229394Y182640D01*
X229791Y183037D01*
G54D24*
X217094Y258840D02*
X229394Y258840D01*
X229791Y259237D01*
X427680Y332334D02*
G54D10*
D03*
X427680Y351334D02*
G54D10*
D03*
G54D24*
X410369Y327500D02*
X422846Y327500D01*
X427680Y332334D01*
X22944Y183459D02*
G54D18*
D03*
X61838Y183459D02*
G54D18*
D03*
X22944Y112022D02*
G54D18*
D03*
X61838Y112022D02*
G54D18*
D03*
G54D19*
X60325Y181053D02*
X60325Y115966D01*
X61119Y115172D01*
G54D24*
X346075Y337819D02*
X357188Y337819D01*
X362347Y332659D01*
X398066Y332659D01*
G54D24*
X398859Y342581D02*
X381794Y342581D01*
X377428Y338216D01*
X365919Y338216D01*
X357584Y346550D01*
X355997Y346550D01*
X327819Y374728D01*
X327819Y385047D01*
X253603Y459262D01*
X134144Y459262D01*
X128588Y453706D01*
X128588Y250209D01*
X61838Y183459D01*
G54D24*
X61838Y323159D02*
X80194Y323159D01*
X121444Y364409D01*
X121444Y455690D01*
X131762Y466009D01*
X267891Y466009D01*
X279003Y454897D01*
X342900Y454897D01*
X374650Y423147D01*
X374650Y367981D01*
X375047Y367584D01*
G54D24*
X61838Y462859D02*
X119484Y462859D01*
X129778Y473153D01*
X271859Y473153D01*
X282178Y462834D01*
X346472Y462834D01*
X380206Y429100D01*
X380206Y368775D01*
X232891Y129372D02*
G54D28*
D03*
X232891Y99172D02*
G54D28*
D03*
X232791Y114072D02*
G54D28*
D03*
X263291Y113972D02*
G54D29*
D03*
G36*
X239191Y118172D02*
X251891Y118172D01*
X251891Y110272D01*
X237591Y110272D01*
X237591Y118172D01*
X239191Y118172D01*
G37*
G54D30*
X239191Y118172D02*
X251891Y118172D01*
X251891Y110272D01*
X237591Y110272D01*
X237591Y118172D01*
X239191Y118172D01*
X304403Y342581D02*
G54D15*
D03*
X314722Y352503D02*
G54D15*
D03*
X230584Y335834D02*
G54D15*
D03*
X230584Y411637D02*
G54D15*
D03*
G54D24*
X217094Y411240D02*
X230188Y411240D01*
X230584Y411637D01*
G54D24*
X217094Y335040D02*
X229791Y335040D01*
X230584Y335834D01*
G54D24*
X314722Y352503D02*
X319484Y347740D01*
X334169Y347740D01*
X211935Y129459D02*
G54D14*
D03*
X192935Y129459D02*
G54D14*
D03*
G54D12*
X211935Y129459D02*
X232804Y129459D01*
X232891Y129372D01*
X232891Y147244D01*
X237331Y151684D01*
X237331Y428703D01*
X228997Y437037D01*
X217540Y437037D01*
X217286Y436784D01*
G54D12*
X217286Y360584D02*
X236681Y360584D01*
X236934Y360837D01*
G54D12*
X217286Y284384D02*
X237188Y284384D01*
X237331Y284240D01*
G54D12*
X217286Y208184D02*
X237188Y208184D01*
X237331Y208040D01*
X317504Y327500D02*
G54D14*
D03*
X298504Y327500D02*
G54D14*
D03*
G54D24*
X304403Y342581D02*
X334169Y342581D01*
G54D24*
X333772Y327500D02*
X331391Y327500D01*
X329009Y329881D01*
X329009Y335437D01*
X330994Y337422D01*
X334169Y337422D01*
G54D24*
X334169Y322340D02*
X322262Y322340D01*
G54D24*
X330994Y337422D02*
X309166Y337422D01*
X302816Y331072D01*
X460200Y43297D02*
G54D27*
D03*
X510999Y43297D02*
G54D27*
D03*
X494113Y65562D02*
G54D14*
D03*
X475113Y65562D02*
G54D14*
D03*
X462359Y95725D02*
G54D32*
D03*
X502259Y95725D02*
G54D32*
D03*
G54D12*
X460200Y43297D02*
X460200Y50649D01*
X475113Y65562D01*
X475113Y82971D01*
X462359Y95725D01*
X427434Y95725D01*
X367506Y155653D01*
X301625Y155653D01*
X291703Y145731D01*
X291703Y95725D01*
X282575Y86597D01*
X245466Y86597D01*
X232891Y99172D01*
X359569Y322340D02*
G54D15*
D03*
X410691Y192475D02*
G54D28*
D03*
X410691Y162275D02*
G54D28*
D03*
X410591Y177175D02*
G54D28*
D03*
X441091Y177075D02*
G54D29*
D03*
G36*
X416991Y181275D02*
X429691Y181275D01*
X429691Y173375D01*
X415391Y173375D01*
X415391Y181275D01*
X416991Y181275D01*
G37*
G54D30*
X416991Y181275D02*
X429691Y181275D01*
X429691Y173375D01*
X415391Y173375D01*
X415391Y181275D01*
X416991Y181275D01*
X395601Y192475D02*
G54D14*
D03*
X376601Y192475D02*
G54D14*
D03*
G54D12*
X462359Y95725D02*
X453231Y95725D01*
X410369Y138587D01*
X410369Y161953D01*
X410691Y162275D01*
G54D12*
X410691Y192475D02*
X395601Y192475D01*
G54D12*
X359569Y322340D02*
X356394Y322340D01*
X353219Y325516D01*
X407194Y207246D02*
G54D15*
D03*
G54D12*
X410691Y192475D02*
X410691Y203749D01*
X407194Y207246D01*
X562619Y146272D02*
G54D15*
D03*
G54D12*
X562619Y146272D02*
X579288Y146272D01*
G54D12*
X462359Y95725D02*
X462359Y109616D01*
X525462Y172719D01*
X657319Y172719D01*
X658309Y171728D01*
X522684Y397669D02*
G54D15*
D03*
G54D12*
X522684Y397669D02*
X522684Y406478D01*
X648388Y558284D02*
G54D25*
D03*
X671406Y503516D02*
G54D25*
D03*
X671406Y420966D02*
G54D25*
D03*
X671406Y370166D02*
G54D25*
D03*
G54D12*
X671406Y503516D02*
X651869Y503516D01*
X651669Y503316D01*
G54D12*
X671406Y420966D02*
X651869Y420966D01*
X651669Y420766D01*
G54D24*
X408781Y406081D02*
X408781Y399334D01*
X384572Y375125D01*
X384572Y368378D01*
G54D24*
X389731Y368378D02*
X389731Y373537D01*
X421481Y405287D01*
X357271Y138608D02*
G54D15*
D03*
G54D12*
X345762Y138608D02*
X357271Y138608D01*
X284901Y484059D02*
G54D15*
D03*
G54D12*
X284901Y484059D02*
X296808Y484059D01*
G54D12*
X298504Y327500D02*
X298504Y328000D01*
X289004Y337500D01*
X289004Y390050D01*
X280194Y398859D01*
X268313Y398859D01*
X268112Y398658D01*
X255387Y398658D01*
X252809Y396081D01*
X252809Y195659D01*
X259556Y188912D01*
X267866Y188912D01*
X268112Y189158D01*
G54D12*
X268112Y189158D02*
X268112Y118793D01*
X263291Y113972D01*
G54D12*
X232791Y114072D02*
X197475Y114072D01*
X193675Y117872D01*
X193675Y128719D01*
X192935Y129459D01*
X192935Y129499D01*
X164597Y157837D01*
G54D12*
X164597Y386437D02*
X146725Y386437D01*
X138112Y377825D01*
X138112Y167084D01*
X147241Y157956D01*
X164478Y157956D01*
X164597Y157837D01*
G54D12*
X164597Y234037D02*
X138231Y234037D01*
X138112Y234156D01*
G54D12*
X164597Y310237D02*
X138628Y310237D01*
X138509Y310356D01*
X415925Y228678D02*
G54D15*
D03*
X527447Y120331D02*
G54D15*
D03*
G54D24*
X369888Y291306D02*
X369888Y284162D01*
X366316Y280591D01*
X366316Y265509D01*
X403225Y228600D01*
X415847Y228600D01*
X415925Y228678D01*
G54D24*
X527447Y120331D02*
X541046Y120331D01*
X541484Y120768D01*
G54D12*
X376601Y192475D02*
X376601Y186168D01*
X385762Y177006D01*
X410422Y177006D01*
X410591Y177175D01*
G54D26*
X502259Y95725D02*
X502259Y73709D01*
X494113Y65562D01*
X494113Y60184D01*
X510999Y43297D01*
X606079Y43297D01*
X658309Y95528D01*
G54D26*
X441091Y177075D02*
X441091Y179538D01*
X472175Y210622D01*
G54D26*
X658309Y95528D02*
X685284Y95528D01*
X705644Y115888D01*
X705644Y266700D01*
X685006Y287338D01*
X659778Y287338D01*
X659500Y287616D01*
G54D26*
X685006Y287338D02*
X691753Y287338D01*
X704453Y300038D01*
X704453Y356791D01*
X691753Y369491D01*
X672081Y369491D01*
X671406Y370166D01*
G54D12*
X427680Y351334D02*
X431106Y351334D01*
X452834Y373062D01*
X452834Y389237D01*
X453453Y389856D01*
G54D26*
X453453Y389856D02*
X453453Y402653D01*
X457994Y407194D01*
G54D26*
X671406Y370166D02*
X527963Y370166D01*
X520700Y377428D01*
X465881Y377428D01*
X453453Y389856D01*
G54D26*
X307800Y43297D02*
X307800Y13715D01*
X307181Y13097D01*
G54D26*
X510999Y43297D02*
X510999Y36734D01*
X486569Y12303D01*
X244872Y12303D01*
X213519Y43656D01*
X213519Y111919D01*
X213916Y112316D01*
G54D26*
X22944Y462859D02*
X22944Y112022D01*
X22944Y96516D01*
X34925Y84534D01*
X213122Y84534D01*
X213519Y84931D01*
G54D26*
X441091Y177075D02*
X498147Y177075D01*
X525066Y203994D01*
X706438Y203994D01*
G54D26*
X22944Y462859D02*
X22944Y471016D01*
X55562Y503634D01*
X185341Y503634D01*
X266303Y584597D01*
X622075Y584597D01*
X648388Y558284D01*
G54D26*
X472266Y512319D02*
X472266Y583391D01*
X472678Y583803D01*
G54D12*
X334908Y484059D02*
X395556Y484059D01*
X395684Y484188D01*
G54D12*
X271859Y165894D02*
X384572Y165894D01*
X394097Y175419D01*
G54D12*
X368793Y112433D02*
X382470Y112433D01*
X404019Y90884D01*
X404019Y11906D01*
X404416Y11509D01*
M02*
