; Drill file
; Format: 3.3 (000.000)
M48
METRIC
T01C0.3
T02C0.9
T03C1.2
T04C3.0
%
G05
G90
T01
X022980Y018300
X022980Y025920
X023060Y033580
X030440Y034260
X031470Y035250
X035960Y032230
X036990Y034660
X041430Y035520
X040920Y042620
X040920Y049770
X042190Y049770
X028490Y048410
X023060Y041160
X037460Y027670
X037940Y026400
X041590Y022870
X040720Y020720
X035730Y013860
X052740Y012030
X056260Y014630
X052270Y039770
T02
X016460Y015780
X016460Y018320
X016460Y020860
X016460Y023400
X016460Y025940
X016460Y028480
X016460Y031020
X016460Y033560
X016460Y036100
X016460Y038640
X016460Y041180
X016460Y043720
X047220Y033760
X047220Y031220
X047220Y028680
X047220Y026140
X047220Y023600
X047220Y021060
X065950Y023680
X065950Y026220
X065950Y028760
X065950Y031300
X065950Y033840
X067140Y037020
X067140Y042100
X070720Y042310
X070720Y044850
X070720Y047390
X070720Y049930
X067140Y050350
X064840Y055830
X065830Y017170
X065830Y014630
X065830Y012090
X065830Y009550
T03
X030780Y004330
X035860Y004330
X046020Y004330
X051100Y004330
X034170Y054880
X029090Y054880
T04
X004040Y004070
X004200Y055900
X070990Y055980
X070990Y004030
M30
