%FSLAX34Y34*%
%MOMM*%
%LNSOLDERMASK_BOTTOM*%
G71*
G01*
%ADD10C, 1.400*%
%ADD11C, 6.600*%
%ADD12C, 2.900*%
%ADD13C, 3.600*%
%ADD14C, 2.400*%
%LPD*%
X409178Y497681D02*
G54D10*
D03*
X409178Y426244D02*
G54D10*
D03*
X40369Y40728D02*
G54D11*
D03*
X41956Y559047D02*
G54D11*
D03*
X709897Y559840D02*
G54D11*
D03*
X709897Y40331D02*
G54D11*
D03*
X369888Y346550D02*
G54D10*
D03*
X707231Y499347D02*
G54D12*
D03*
X707231Y473947D02*
G54D12*
D03*
X707231Y448547D02*
G54D12*
D03*
X707231Y423147D02*
G54D12*
D03*
X421878Y497681D02*
G54D10*
D03*
X414338Y355203D02*
G54D10*
D03*
X341714Y548806D02*
G54D13*
D03*
X290914Y548806D02*
G54D13*
D03*
X307800Y43297D02*
G54D13*
D03*
X358600Y43297D02*
G54D13*
D03*
G54D14*
X463175Y337622D02*
X481175Y337622D01*
G54D14*
X463175Y312222D02*
X481175Y312222D01*
G54D14*
X463175Y286822D02*
X481175Y286822D01*
G54D14*
X463175Y261422D02*
X481175Y261422D01*
G54D14*
X463175Y236022D02*
X481175Y236022D01*
G54D14*
X463175Y210622D02*
X481175Y210622D01*
G54D14*
X650500Y236816D02*
X668500Y236816D01*
G54D14*
X650500Y262216D02*
X668500Y262216D01*
G54D14*
X650500Y287616D02*
X668500Y287616D01*
G54D14*
X650500Y313016D02*
X668500Y313016D01*
G54D14*
X650500Y338416D02*
X668500Y338416D01*
G54D14*
X649309Y95528D02*
X667309Y95528D01*
G54D14*
X649309Y120928D02*
X667309Y120928D01*
G54D14*
X649309Y146328D02*
X667309Y146328D01*
G54D14*
X649309Y171728D02*
X667309Y171728D01*
G54D14*
X155597Y386437D02*
X173597Y386437D01*
G54D14*
X155597Y411837D02*
X173597Y411837D01*
G54D14*
X155597Y437237D02*
X173597Y437237D01*
G54D14*
X155597Y310237D02*
X173597Y310237D01*
G54D14*
X155597Y335637D02*
X173597Y335637D01*
G54D14*
X155597Y361037D02*
X173597Y361037D01*
G54D14*
X155597Y234037D02*
X173597Y234037D01*
G54D14*
X155597Y259437D02*
X173597Y259437D01*
G54D14*
X155597Y284837D02*
X173597Y284837D01*
G54D14*
X155597Y157837D02*
X173597Y157837D01*
G54D14*
X155597Y183237D02*
X173597Y183237D01*
G54D14*
X155597Y208637D02*
X173597Y208637D01*
X229791Y259237D02*
G54D10*
D03*
X229791Y183037D02*
G54D10*
D03*
X374650Y276700D02*
G54D10*
D03*
X379412Y264000D02*
G54D10*
D03*
X304403Y342581D02*
G54D10*
D03*
X314722Y352503D02*
G54D10*
D03*
X230584Y335834D02*
G54D10*
D03*
X230584Y411637D02*
G54D10*
D03*
X460200Y43297D02*
G54D13*
D03*
X510999Y43297D02*
G54D13*
D03*
X359569Y322340D02*
G54D10*
D03*
X407194Y207246D02*
G54D10*
D03*
X562619Y146272D02*
G54D10*
D03*
X522684Y397669D02*
G54D10*
D03*
X648388Y558284D02*
G54D12*
D03*
X671406Y503516D02*
G54D12*
D03*
X671406Y420966D02*
G54D12*
D03*
X671406Y370166D02*
G54D12*
D03*
X357271Y138608D02*
G54D10*
D03*
X284901Y484059D02*
G54D10*
D03*
X415925Y228678D02*
G54D10*
D03*
X527447Y120331D02*
G54D10*
D03*
M02*
