%FSLAX34Y34*%
%MOMM*%
%LNCOPPER_TOP*%
G71*
G01*
%ADD10C, 2.000*%
%ADD11R, 0.670X1.600*%
%ADD12C, 0.500*%
%ADD13C, 0.800*%
%ADD14R, 1.400X1.300*%
%ADD15R, 1.600X3.000*%
%ADD16R, 1.300X1.400*%
%ADD17R, 5.000X1.500*%
%ADD18R, 2.500X1.500*%
%ADD19C, 0.000*%
%ADD20R, 0.500X0.500*%
%ADD21C, 1.000*%
%ADD22C, 0.800*%
%LPD*%
X75922Y725806D02*
G54D10*
D03*
X101322Y725806D02*
G54D10*
D03*
X126722Y725806D02*
G54D10*
D03*
X152122Y725806D02*
G54D10*
D03*
X177522Y725806D02*
G54D10*
D03*
X202922Y725806D02*
G54D10*
D03*
X228322Y725806D02*
G54D10*
D03*
X253722Y725806D02*
G54D10*
D03*
X279122Y725806D02*
G54D10*
D03*
X304522Y725806D02*
G54D10*
D03*
X329922Y725806D02*
G54D10*
D03*
X355322Y725806D02*
G54D10*
D03*
X380722Y725806D02*
G54D10*
D03*
X406122Y725806D02*
G54D10*
D03*
X431522Y725806D02*
G54D10*
D03*
X456922Y725806D02*
G54D10*
D03*
X373749Y887767D02*
G54D11*
D03*
X361049Y887767D02*
G54D11*
D03*
X348349Y887767D02*
G54D11*
D03*
X335649Y887767D02*
G54D11*
D03*
X322949Y887767D02*
G54D11*
D03*
X310249Y887767D02*
G54D11*
D03*
X297549Y887767D02*
G54D11*
D03*
X284849Y887767D02*
G54D11*
D03*
X272149Y887767D02*
G54D11*
D03*
X259449Y887767D02*
G54D11*
D03*
X259449Y787767D02*
G54D11*
D03*
X272149Y787767D02*
G54D11*
D03*
X284849Y787767D02*
G54D11*
D03*
X297549Y787767D02*
G54D11*
D03*
X310249Y787767D02*
G54D11*
D03*
X322949Y787767D02*
G54D11*
D03*
X335649Y787767D02*
G54D11*
D03*
X348349Y787767D02*
G54D11*
D03*
X361049Y787767D02*
G54D11*
D03*
X373749Y787767D02*
G54D11*
D03*
X418822Y929006D02*
G54D10*
D03*
X418822Y903606D02*
G54D10*
D03*
X418822Y878206D02*
G54D10*
D03*
X418822Y852806D02*
G54D10*
D03*
X418822Y827406D02*
G54D10*
D03*
X418822Y802006D02*
G54D10*
D03*
G54D12*
X272375Y782559D02*
X272375Y776209D01*
X228322Y732156D01*
G54D12*
X284678Y783353D02*
X284678Y763509D01*
X253722Y732553D01*
G54D12*
X297378Y782559D02*
X297378Y750412D01*
X279122Y732156D01*
G54D12*
X310078Y783353D02*
X310078Y737712D01*
X304522Y732156D01*
G54D12*
X322778Y782956D02*
X322778Y739300D01*
X329922Y732156D01*
G54D12*
X335478Y782956D02*
X335478Y752000D01*
X355322Y732156D01*
G54D12*
X348178Y783353D02*
X348178Y765097D01*
X380722Y732553D01*
G54D12*
X360878Y782956D02*
X360878Y777400D01*
X406122Y732156D01*
G54D12*
X373578Y782956D02*
X406916Y782956D01*
X419219Y795259D01*
G54D12*
X360878Y792878D02*
X360878Y800022D01*
X388659Y827803D01*
X412075Y827803D01*
X349766Y805975D02*
G54D13*
D03*
G54D12*
X335478Y792878D02*
X335478Y805975D01*
X382309Y852806D01*
X412075Y852806D01*
X349766Y836534D02*
G54D13*
D03*
G54D12*
X350559Y837328D02*
X390247Y878206D01*
X412075Y878206D01*
G54D12*
X349766Y805578D02*
X348575Y792481D01*
G54D12*
X373975Y893288D02*
X373975Y898447D01*
X379134Y903606D01*
X412472Y903606D01*
X469622Y878206D02*
G54D10*
D03*
X469622Y852806D02*
G54D10*
D03*
X469622Y827406D02*
G54D10*
D03*
X469622Y802006D02*
G54D10*
D03*
G54D12*
X425172Y852806D02*
X463272Y852806D01*
G54D12*
X425172Y827406D02*
X463272Y827406D01*
G54D12*
X425172Y802006D02*
X463272Y802006D01*
G54D12*
X259278Y783353D02*
X254516Y783353D01*
X202922Y731759D01*
G54D12*
X297378Y883366D02*
X297378Y852409D01*
X177522Y732553D01*
G54D12*
X285075Y883366D02*
X285075Y865506D01*
X152122Y732553D01*
X431894Y710303D02*
G54D14*
D03*
X431894Y691303D02*
G54D14*
D03*
G54D12*
X431919Y719059D02*
X431919Y711916D01*
G54D12*
X101322Y718662D02*
X101322Y700803D01*
X110847Y691278D01*
X432316Y691278D01*
X461684Y691278D01*
X484703Y714297D01*
X484703Y779781D01*
X469622Y794862D01*
X65603Y765097D02*
G54D15*
D03*
X111703Y765097D02*
G54D15*
D03*
X79097Y696041D02*
G54D16*
D03*
X98097Y696041D02*
G54D16*
D03*
G54D12*
X79891Y695644D02*
X79891Y714297D01*
X76319Y717869D01*
G54D12*
X97750Y694850D02*
X102116Y694850D01*
X104497Y697231D01*
G54D12*
X68381Y754778D02*
X68381Y739697D01*
X76319Y731759D01*
G54D12*
X108069Y754778D02*
X108069Y740491D01*
X101322Y733744D01*
X266819Y936944D02*
G54D17*
D03*
X366831Y936944D02*
G54D17*
D03*
X384666Y968668D02*
G54D14*
D03*
X384666Y949668D02*
G54D14*
D03*
X249331Y969462D02*
G54D14*
D03*
X249331Y950462D02*
G54D14*
D03*
G54D12*
X250150Y947659D02*
X250150Y936547D01*
G54D12*
X385881Y947659D02*
X385881Y934562D01*
X386278Y934166D01*
G54D12*
X335875Y893288D02*
X335875Y921862D01*
X345797Y931784D01*
G54D12*
X323175Y892891D02*
X323175Y899638D01*
X289441Y933372D01*
X152916Y656353D02*
G54D18*
D03*
X152916Y611903D02*
G54D18*
D03*
X238641Y656353D02*
G54D18*
D03*
X238641Y611903D02*
G54D18*
D03*
X289441Y656353D02*
G54D18*
D03*
X289441Y611903D02*
G54D18*
D03*
X375166Y656353D02*
G54D18*
D03*
X375166Y611903D02*
G54D18*
D03*
X425966Y656353D02*
G54D18*
D03*
X425966Y611903D02*
G54D18*
D03*
X511691Y656353D02*
G54D18*
D03*
X511691Y611903D02*
G54D18*
D03*
X96559Y630556D02*
G54D10*
D03*
X71159Y630556D02*
G54D10*
D03*
X45759Y630556D02*
G54D10*
D03*
X33059Y668259D02*
G54D16*
D03*
X52059Y668259D02*
G54D16*
D03*
X90209Y668259D02*
G54D16*
D03*
X109209Y668259D02*
G54D16*
D03*
G54D12*
X52109Y665084D02*
X52109Y642859D01*
X45759Y636509D01*
G54D12*
X90209Y667466D02*
X90209Y642859D01*
X96559Y636509D01*
G54D12*
X33059Y669053D02*
X33059Y683341D01*
X44966Y695247D01*
X77509Y695247D01*
X78303Y696041D01*
G54D12*
X110053Y668259D02*
X110053Y692072D01*
X361275Y867491D02*
G54D13*
D03*
X348972Y867491D02*
G54D13*
D03*
X310872Y867491D02*
G54D13*
D03*
X241419Y668259D02*
G54D13*
D03*
X377944Y668259D02*
G54D13*
D03*
X418425Y668259D02*
G54D13*
D03*
G54D12*
X241816Y668259D02*
X241816Y658734D01*
G54D12*
X377547Y668259D02*
X377547Y658734D01*
G54D12*
X418028Y667466D02*
X418028Y658734D01*
G54D12*
X310872Y867491D02*
X310475Y883366D01*
G54D12*
X348972Y867491D02*
X348575Y883366D01*
G54D12*
X361275Y867491D02*
X361275Y883366D01*
G36*
X202290Y837988D02*
X201290Y836988D01*
X195290Y836988D01*
X194290Y837988D01*
X194290Y849988D01*
X196290Y851988D01*
X200290Y851988D01*
X202290Y849988D01*
X202290Y837988D01*
G37*
G54D19*
X202290Y837988D02*
X201290Y836988D01*
X195290Y836988D01*
X194290Y837988D01*
X194290Y849988D01*
X196290Y851988D01*
X200290Y851988D01*
X202290Y849988D01*
X202290Y837988D01*
G36*
X187290Y837988D02*
X186290Y836988D01*
X180290Y836988D01*
X179290Y837988D01*
X179290Y849988D01*
X181290Y851988D01*
X185290Y851988D01*
X187290Y849988D01*
X187290Y837988D01*
G37*
G54D19*
X187290Y837988D02*
X186290Y836988D01*
X180290Y836988D01*
X179290Y837988D01*
X179290Y849988D01*
X181290Y851988D01*
X185290Y851988D01*
X187290Y849988D01*
X187290Y837988D01*
G36*
X172290Y837988D02*
X171290Y836988D01*
X165290Y836988D01*
X164290Y837988D01*
X164290Y849988D01*
X166290Y851988D01*
X170290Y851988D01*
X172290Y849988D01*
X172290Y837988D01*
G37*
G54D19*
X172290Y837988D02*
X171290Y836988D01*
X165290Y836988D01*
X164290Y837988D01*
X164290Y849988D01*
X166290Y851988D01*
X170290Y851988D01*
X172290Y849988D01*
X172290Y837988D01*
G36*
X193790Y805988D02*
X191790Y803988D01*
X174790Y803988D01*
X172790Y805988D01*
X172790Y814488D01*
X174290Y815988D01*
X174290Y836988D01*
X175290Y837988D01*
X191290Y837988D01*
X192290Y836988D01*
X192290Y815988D01*
X193790Y814488D01*
X193790Y805988D01*
G37*
G54D19*
X193790Y805988D02*
X191790Y803988D01*
X174790Y803988D01*
X172790Y805988D01*
X172790Y814488D01*
X174290Y815988D01*
X174290Y836988D01*
X175290Y837988D01*
X191290Y837988D01*
X192290Y836988D01*
X192290Y815988D01*
X193790Y814488D01*
X193790Y805988D01*
G36*
X207790Y811988D02*
X205790Y809988D01*
X160790Y809988D01*
X158790Y811988D01*
X158790Y833488D01*
X160290Y834988D01*
X206290Y834988D01*
X207790Y833488D01*
X207790Y811988D01*
G37*
G54D19*
X207790Y811988D02*
X205790Y809988D01*
X160790Y809988D01*
X158790Y811988D01*
X158790Y833488D01*
X160290Y834988D01*
X206290Y834988D01*
X207790Y833488D01*
X207790Y811988D01*
X183321Y808463D02*
G54D20*
D03*
X232266Y867862D02*
G54D14*
D03*
X232266Y848862D02*
G54D14*
D03*
G54D12*
X271978Y882969D02*
X271978Y876619D01*
X262850Y867491D01*
X233084Y867491D01*
G54D12*
X232291Y848441D02*
X198159Y848441D01*
X183475Y857966D02*
G54D13*
D03*
G54D12*
X183475Y857966D02*
X183475Y848838D01*
X499338Y923847D02*
G54D16*
D03*
X480338Y923847D02*
G54D16*
D03*
X499760Y869896D02*
G54D14*
D03*
X499760Y888896D02*
G54D14*
D03*
G54D12*
X500181Y867888D02*
X498991Y824231D01*
X475972Y801212D01*
X435491Y903606D02*
G54D13*
D03*
X498594Y904003D02*
G54D13*
D03*
G54D12*
X425172Y903606D02*
X435888Y903606D01*
G54D12*
X498197Y921862D02*
X498197Y888128D01*
G54D21*
X18375Y597219D02*
X18375Y694056D01*
X39806Y715488D01*
X39806Y780972D01*
X50919Y792084D01*
X135056Y792084D01*
X144978Y802006D01*
X144978Y852409D01*
X178712Y886144D01*
X191412Y886144D01*
X196969Y891700D01*
X221972Y891700D01*
X230306Y900034D01*
X230306Y978219D01*
X238641Y986553D01*
X398978Y986553D01*
X405725Y979806D01*
X405725Y955200D01*
X412075Y948850D01*
X509706Y948850D01*
X522406Y936150D01*
X522406Y822644D01*
X497800Y798038D01*
X497800Y791291D01*
X500975Y788116D01*
X500975Y687706D01*
X508912Y679769D01*
X526375Y679769D01*
X534709Y671434D01*
X534709Y602378D01*
X526772Y594441D01*
X18375Y594441D01*
G54D12*
X30281Y667862D02*
X19169Y667862D01*
X18772Y667466D01*
G54D12*
X61634Y763906D02*
X40600Y763906D01*
X40203Y763509D01*
G54D12*
X151725Y611506D02*
X151725Y594044D01*
G54D12*
X237450Y610712D02*
X237450Y594441D01*
G54D12*
X288250Y610712D02*
X288250Y594044D01*
G54D12*
X374769Y611903D02*
X374769Y594044D01*
X375562Y593250D01*
G54D12*
X426362Y610316D02*
X426362Y595631D01*
X426759Y595234D01*
G54D12*
X511691Y610316D02*
X511691Y594838D01*
X512484Y594044D01*
G54D22*
X418822Y935356D02*
X418822Y949644D01*
G54D22*
X469225Y884556D02*
X469225Y948850D01*
X468828Y949247D01*
G54D12*
X470416Y924244D02*
X478750Y924244D01*
X479147Y924641D01*
G54D12*
X385881Y969884D02*
X385881Y984569D01*
G54D12*
X249753Y969488D02*
X249753Y984966D01*
X249356Y985362D01*
G54D12*
X167997Y846456D02*
X167600Y855584D01*
X158869Y864316D01*
G54D12*
X259278Y892494D02*
X243006Y892494D01*
X230306Y905194D01*
M02*
