; Drill file
; Format: 3.3 (000.000)
M48
METRIC
T01C0.3
T02C0.7
%
G05
G90
T01
X024140Y066830
X037790Y066830
X041840Y066830
X034980Y080600
X034980Y083650
X034900Y086750
X036130Y086750
X031090Y086750
X018350Y085800
X043550Y090360
X049860Y090400
T02
X004580Y063060
X007120Y063060
X009660Y063060
X010130Y072580
X007590Y072580
X012670Y072580
X015210Y072580
X017750Y072580
X020290Y072580
X022830Y072580
X025370Y072580
X027910Y072580
X030450Y072580
X032990Y072580
X035530Y072580
X038070Y072580
X040610Y072580
X043150Y072580
X045690Y072580
X046960Y080200
X046960Y082740
X046960Y085280
X046960Y087820
X041880Y087820
X041880Y090360
X041880Y092900
X041880Y085280
X041880Y082740
X041880Y080200
M30
