%FSLAX34Y34*%
%MOMM*%
%LNSILK_BOTTOM*%
G71*
G01*
%ADD10C, 0.222*%
%ADD11C, 0.200*%
%LPD*%
G54D10*
X57227Y736917D02*
X50560Y743584D01*
X50560Y725806D01*
G54D10*
X491883Y736917D02*
X485216Y743584D01*
X485216Y725806D01*
G54D10*
X469660Y740251D02*
X470994Y742473D01*
X473660Y743584D01*
X476327Y743584D01*
X478994Y742473D01*
X480327Y740251D01*
X480327Y734695D01*
X480327Y733584D01*
X476327Y735806D01*
X473660Y735806D01*
X470994Y734695D01*
X469660Y732473D01*
X469660Y729140D01*
X470994Y726917D01*
X473660Y725806D01*
X476327Y725806D01*
X478994Y726917D01*
X480327Y729140D01*
X480327Y734695D01*
G54D10*
X405725Y801847D02*
X395058Y801847D01*
G54D10*
X400392Y806291D02*
X400392Y797402D01*
G54D10*
X379502Y811847D02*
X390169Y811847D01*
X390169Y804069D01*
X388836Y804069D01*
X386169Y805180D01*
X383502Y805180D01*
X380836Y804069D01*
X379502Y801847D01*
X379502Y797402D01*
X380836Y795180D01*
X383502Y794069D01*
X386169Y794069D01*
X388836Y795180D01*
X390169Y797402D01*
G54D10*
X374613Y811847D02*
X367946Y794069D01*
X361280Y811847D01*
G54D10*
X395629Y931545D02*
X390296Y931545D01*
X390296Y925990D01*
X391629Y923767D01*
X394296Y922656D01*
X396962Y922656D01*
X399629Y923767D01*
X400962Y925990D01*
X400962Y937101D01*
X399629Y939323D01*
X396962Y940434D01*
X394296Y940434D01*
X391629Y939323D01*
X390296Y937101D01*
G54D10*
X385406Y922656D02*
X385406Y940434D01*
X374740Y922656D01*
X374740Y940434D01*
G54D10*
X369850Y922656D02*
X369850Y940434D01*
X363184Y940434D01*
X360517Y939323D01*
X359184Y937101D01*
X359184Y925990D01*
X360517Y923767D01*
X363184Y922656D01*
X369850Y922656D01*
G54D10*
X395629Y904558D02*
X391629Y902335D01*
X390296Y900113D01*
X390296Y895669D01*
G54D10*
X400962Y895669D02*
X400962Y913447D01*
X394296Y913447D01*
X391629Y912335D01*
X390296Y910113D01*
X390296Y907891D01*
X391629Y905669D01*
X394296Y904558D01*
X400962Y904558D01*
G54D10*
X385406Y899002D02*
X384073Y896780D01*
X381406Y895669D01*
X378740Y895669D01*
X376073Y896780D01*
X374740Y899002D01*
X374740Y901224D01*
X376073Y903447D01*
X378740Y904558D01*
X381406Y904558D01*
X384073Y905669D01*
X385406Y907891D01*
X385406Y910113D01*
X384073Y912335D01*
X381406Y913447D01*
X378740Y913447D01*
X376073Y912335D01*
X374740Y910113D01*
G54D10*
X364517Y895669D02*
X364517Y913447D01*
G54D10*
X369850Y913447D02*
X359184Y913447D01*
G54D10*
X401359Y873841D02*
X401359Y891618D01*
X394693Y880507D01*
X388026Y891618D01*
X388026Y873841D01*
G54D10*
X372471Y888285D02*
X372471Y877174D01*
X373804Y874952D01*
X376471Y873841D01*
X379137Y873841D01*
X381804Y874952D01*
X383137Y877174D01*
X383137Y888285D01*
X381804Y890507D01*
X379137Y891618D01*
X376471Y891618D01*
X373804Y890507D01*
X372471Y888285D01*
G54D10*
X367581Y877174D02*
X366248Y874952D01*
X363581Y873841D01*
X360915Y873841D01*
X358248Y874952D01*
X356915Y877174D01*
X356915Y879396D01*
X358248Y881618D01*
X360915Y882730D01*
X363581Y882730D01*
X366248Y883841D01*
X367581Y886063D01*
X367581Y888285D01*
X366248Y890507D01*
X363581Y891618D01*
X360915Y891618D01*
X358248Y890507D01*
X356915Y888285D01*
G54D10*
X352025Y873841D02*
X341359Y873841D01*
G54D10*
X346692Y873841D02*
X346692Y891618D01*
G54D10*
X352025Y891618D02*
X341359Y891618D01*
G54D10*
X400962Y843678D02*
X400962Y861456D01*
X394296Y850345D01*
X387629Y861456D01*
X387629Y843678D01*
G54D10*
X382740Y843678D02*
X372074Y843678D01*
G54D10*
X377407Y843678D02*
X377407Y861456D01*
G54D10*
X382740Y861456D02*
X372074Y861456D01*
G54D10*
X367184Y847011D02*
X365851Y844789D01*
X363184Y843678D01*
X360518Y843678D01*
X357851Y844789D01*
X356518Y847011D01*
X356518Y849234D01*
X357851Y851456D01*
X360518Y852567D01*
X363184Y852567D01*
X365851Y853678D01*
X367184Y855900D01*
X367184Y858123D01*
X365851Y860345D01*
X363184Y861456D01*
X360518Y861456D01*
X357851Y860345D01*
X356518Y858123D01*
G54D10*
X340962Y858123D02*
X340962Y847011D01*
X342295Y844789D01*
X344962Y843678D01*
X347628Y843678D01*
X350295Y844789D01*
X351628Y847011D01*
X351628Y858123D01*
X350295Y860345D01*
X347628Y861456D01*
X344962Y861456D01*
X342295Y860345D01*
X340962Y858123D01*
G54D10*
X400962Y822802D02*
X399629Y820580D01*
X396962Y819469D01*
X394296Y819469D01*
X391629Y820580D01*
X390296Y822802D01*
X390296Y825024D01*
X391629Y827247D01*
X394296Y828358D01*
X396962Y828358D01*
X399629Y829469D01*
X400962Y831691D01*
X400962Y833913D01*
X399629Y836135D01*
X396962Y837247D01*
X394296Y837247D01*
X391629Y836135D01*
X390296Y833913D01*
G54D10*
X374740Y822802D02*
X376073Y820580D01*
X378740Y819469D01*
X381406Y819469D01*
X384073Y820580D01*
X385406Y822802D01*
X385406Y833913D01*
X384073Y836135D01*
X381406Y837247D01*
X378740Y837247D01*
X376073Y836135D01*
X374740Y833913D01*
G54D10*
X369850Y819469D02*
X369850Y837247D01*
G54D10*
X369850Y825024D02*
X359184Y837247D01*
G54D10*
X365850Y828358D02*
X359184Y819469D01*
G54D10*
X520645Y878364D02*
X515311Y878364D01*
X515311Y872808D01*
X516645Y870586D01*
X519311Y869475D01*
X521978Y869475D01*
X524645Y870586D01*
X525978Y872808D01*
X525978Y883919D01*
X524645Y886142D01*
X521978Y887253D01*
X519311Y887253D01*
X516645Y886142D01*
X515311Y883919D01*
G54D10*
X510422Y869475D02*
X510422Y887253D01*
X499755Y869475D01*
X499755Y887253D01*
G54D10*
X494866Y869475D02*
X494866Y887253D01*
X488199Y887253D01*
X485533Y886142D01*
X484199Y883919D01*
X484199Y872808D01*
X485533Y870586D01*
X488199Y869475D01*
X494866Y869475D01*
G54D10*
X529550Y800656D02*
X518883Y800656D01*
G54D10*
X524217Y805100D02*
X524217Y796211D01*
G54D10*
X503327Y810656D02*
X513994Y810656D01*
X513994Y802878D01*
X512661Y802878D01*
X509994Y803989D01*
X507327Y803989D01*
X504661Y802878D01*
X503327Y800656D01*
X503327Y796211D01*
X504661Y793989D01*
X507327Y792878D01*
X509994Y792878D01*
X512661Y793989D01*
X513994Y796211D01*
G54D10*
X498438Y810656D02*
X491771Y792878D01*
X485105Y810656D01*
G54D10*
X525978Y847408D02*
X524645Y845186D01*
X521978Y844075D01*
X519311Y844075D01*
X516645Y845186D01*
X515311Y847408D01*
X515311Y849631D01*
X516645Y851853D01*
X519311Y852964D01*
X521978Y852964D01*
X524645Y854075D01*
X525978Y856297D01*
X525978Y858519D01*
X524645Y860742D01*
X521978Y861853D01*
X519311Y861853D01*
X516645Y860742D01*
X515311Y858519D01*
G54D10*
X510422Y844075D02*
X510422Y861853D01*
X503755Y861853D01*
X501089Y860742D01*
X499755Y858519D01*
X499755Y847408D01*
X501089Y845186D01*
X503755Y844075D01*
X510422Y844075D01*
G54D10*
X494866Y844075D02*
X488199Y861853D01*
X481533Y844075D01*
G54D10*
X492199Y850742D02*
X484199Y850742D01*
G54D10*
X525978Y822008D02*
X524645Y819786D01*
X521978Y818675D01*
X519311Y818675D01*
X516645Y819786D01*
X515311Y822008D01*
X515311Y824231D01*
X516645Y826453D01*
X519311Y827564D01*
X521978Y827564D01*
X524645Y828675D01*
X525978Y830897D01*
X525978Y833119D01*
X524645Y835342D01*
X521978Y836453D01*
X519311Y836453D01*
X516645Y835342D01*
X515311Y833119D01*
G54D10*
X499755Y822008D02*
X501089Y819786D01*
X503755Y818675D01*
X506422Y818675D01*
X509089Y819786D01*
X510422Y822008D01*
X510422Y833119D01*
X509089Y835342D01*
X506422Y836453D01*
X503755Y836453D01*
X501089Y835342D01*
X499755Y833119D01*
G54D10*
X494866Y836453D02*
X494866Y818675D01*
X485533Y818675D01*
G54D11*
X121959Y764303D02*
X131484Y764303D01*
G54D11*
X126722Y769065D02*
X126722Y759540D01*
M02*
